<svg xmlns="http://www.w3.org/2000/svg" viewBox="0 0 700 380" font-family="'Segoe UI', system-ui, -apple-system, sans-serif">
  <defs>
    <linearGradient id="wikiGrad" x1="0%" y1="0%" x2="100%" y2="0%">
      <stop offset="0%" style="stop-color:#3b82f6;stop-opacity:0.12"/>
      <stop offset="100%" style="stop-color:#3b82f6;stop-opacity:0.04"/>
    </linearGradient>
    <linearGradient id="postGrad" x1="0%" y1="0%" x2="100%" y2="0%">
      <stop offset="0%" style="stop-color:#a855f7;stop-opacity:0.12"/>
      <stop offset="100%" style="stop-color:#a855f7;stop-opacity:0.04"/>
    </linearGradient>
    <filter id="shadow" x="-2%" y="-2%" width="104%" height="108%">
      <feDropShadow dx="0" dy="1" stdDeviation="2" flood-opacity="0.12"/>
    </filter>
    <marker id="arrowDown" viewBox="0 0 10 10" refX="5" refY="10" markerWidth="6" markerHeight="6" orient="auto">
      <path d="M 0 0 L 10 0 L 5 10 z" fill="#94a3b8"/>
    </marker>
    <marker id="arrowRight" viewBox="0 0 10 10" refX="9" refY="5" markerWidth="6" markerHeight="6" orient="auto-start-reverse">
      <path d="M 0 0 L 10 5 L 0 10 z" fill="#94a3b8"/>
    </marker>
  </defs>

  <rect width="700" height="380" rx="8" fill="#0f172a"/>
  <text x="350" y="28" text-anchor="middle" fill="#e2e8f0" font-size="16" font-weight="600">Content Architecture</text>

  <!-- Content Types row -->
  <rect x="30" y="50" width="640" height="60" rx="8" fill="#1e293b" stroke="#475569" stroke-width="0.6"/>
  <text x="350" y="72" text-anchor="middle" fill="#94a3b8" font-size="10" font-weight="600" letter-spacing="0.5">CONTENT TYPES</text>

  <rect x="50" y="80" width="120" height="22" rx="6" fill="#3b82f6" opacity="0.12" stroke="#3b82f6" stroke-width="0.5"/>
  <text x="110" y="95" text-anchor="middle" fill="#60a5fa" font-size="9">Wiki — Evergreen</text>
  <rect x="185" y="80" width="120" height="22" rx="6" fill="#22c55e" opacity="0.12" stroke="#22c55e" stroke-width="0.5"/>
  <text x="245" y="95" text-anchor="middle" fill="#4ade80" font-size="9">Tutorials — Guides</text>
  <rect x="320" y="80" width="120" height="22" rx="6" fill="#a855f7" opacity="0.12" stroke="#a855f7" stroke-width="0.5"/>
  <text x="380" y="95" text-anchor="middle" fill="#c084fc" font-size="9">Posts — Journey</text>
  <rect x="455" y="80" width="120" height="22" rx="6" fill="#f59e0b" opacity="0.12" stroke="#f59e0b" stroke-width="0.5"/>
  <text x="515" y="95" text-anchor="middle" fill="#fbbf24" font-size="9">Series — Multi-Part</text>

  <!-- Wiki Topics -->
  <line x1="110" y1="110" x2="110" y2="130" stroke="#3b82f6" stroke-width="1" marker-end="url(#arrowDown)"/>

  <rect x="20" y="136" width="260" height="130" rx="8" fill="url(#wikiGrad)" stroke="#3b82f6" stroke-width="1" filter="url(#shadow)"/>
  <text x="40" y="156" fill="#93c5fd" font-size="10" font-weight="600">WIKI TOPICS</text>
  <rect x="40" y="166" width="100" height="22" rx="4" fill="#1e293b" stroke="#3b82f6" stroke-width="0.5"/>
  <text x="90" y="181" text-anchor="middle" fill="#bfdbfe" font-size="8">Virtualization</text>
  <rect x="150" y="166" width="100" height="22" rx="4" fill="#1e293b" stroke="#3b82f6" stroke-width="0.5"/>
  <text x="200" y="181" text-anchor="middle" fill="#bfdbfe" font-size="8">Networking</text>
  <rect x="40" y="196" width="100" height="22" rx="4" fill="#1e293b" stroke="#3b82f6" stroke-width="0.5"/>
  <text x="90" y="211" text-anchor="middle" fill="#bfdbfe" font-size="8">Automation</text>
  <rect x="150" y="196" width="100" height="22" rx="4" fill="#1e293b" stroke="#3b82f6" stroke-width="0.5"/>
  <text x="200" y="211" text-anchor="middle" fill="#bfdbfe" font-size="8">Monitoring</text>

  <!-- Post Categories -->
  <line x1="380" y1="110" x2="380" y2="130" stroke="#a855f7" stroke-width="1" marker-end="url(#arrowDown)"/>

  <rect x="310" y="136" width="260" height="130" rx="8" fill="url(#postGrad)" stroke="#a855f7" stroke-width="1" filter="url(#shadow)"/>
  <text x="330" y="156" fill="#d8b4fe" font-size="10" font-weight="600">POST CATEGORIES</text>
  <rect x="330" y="166" width="100" height="22" rx="4" fill="#1e293b" stroke="#a855f7" stroke-width="0.5"/>
  <text x="380" y="181" text-anchor="middle" fill="#d8b4fe" font-size="8">Lab Notes</text>
  <rect x="440" y="166" width="110" height="22" rx="4" fill="#1e293b" stroke="#a855f7" stroke-width="0.5"/>
  <text x="495" y="181" text-anchor="middle" fill="#d8b4fe" font-size="8">Lessons Learned</text>
  <rect x="330" y="196" width="100" height="22" rx="4" fill="#1e293b" stroke="#a855f7" stroke-width="0.5"/>
  <text x="380" y="211" text-anchor="middle" fill="#d8b4fe" font-size="8">Updates</text>

  <!-- Output URLs -->
  <line x1="150" y1="266" x2="150" y2="290" stroke="#94a3b8" stroke-width="1" marker-end="url(#arrowDown)"/>
  <line x1="440" y1="266" x2="440" y2="290" stroke="#94a3b8" stroke-width="1" marker-end="url(#arrowDown)"/>

  <rect x="20" y="296" width="660" height="60" rx="8" fill="#1e293b" stroke="#475569" stroke-width="0.6"/>
  <text x="350" y="316" text-anchor="middle" fill="#94a3b8" font-size="10" font-weight="600" letter-spacing="0.5">OUTPUT PATHS</text>
  <rect x="40" y="326" width="80" height="18" rx="4" fill="#3b82f6" opacity="0.10"/>
  <text x="80" y="339" text-anchor="middle" fill="#60a5fa" font-size="8">/wiki/*</text>
  <rect x="140" y="326" width="100" height="18" rx="4" fill="#22c55e" opacity="0.10"/>
  <text x="190" y="339" text-anchor="middle" fill="#4ade80" font-size="8">/tutorials/*</text>
  <rect x="260" y="326" width="120" height="18" rx="4" fill="#a855f7" opacity="0.10"/>
  <text x="320" y="339" text-anchor="middle" fill="#c084fc" font-size="8">/posts/YYYY/*</text>
  <rect x="400" y="326" width="80" height="18" rx="4" fill="#f59e0b" opacity="0.10"/>
  <text x="440" y="339" text-anchor="middle" fill="#fbbf24" font-size="8">/series/*</text>
</svg>