<svg xmlns="http://www.w3.org/2000/svg" viewBox="0 0 640 380" font-family="'Segoe UI', system-ui, -apple-system, sans-serif">
  <defs>
    <linearGradient id="orchGrad" x1="0%" y1="0%" x2="100%" y2="0%">
      <stop offset="0%" style="stop-color:#3b82f6;stop-opacity:0.12"/>
      <stop offset="100%" style="stop-color:#3b82f6;stop-opacity:0.04"/>
    </linearGradient>
    <linearGradient id="execGrad" x1="0%" y1="0%" x2="100%" y2="0%">
      <stop offset="0%" style="stop-color:#f59e0b;stop-opacity:0.12"/>
      <stop offset="100%" style="stop-color:#f59e0b;stop-opacity:0.04"/>
    </linearGradient>
    <linearGradient id="trigGrad" x1="0%" y1="0%" x2="100%" y2="0%">
      <stop offset="0%" style="stop-color:#22c55e;stop-opacity:0.12"/>
      <stop offset="100%" style="stop-color:#22c55e;stop-opacity:0.04"/>
    </linearGradient>
    <filter id="shadow" x="-2%" y="-2%" width="104%" height="108%">
      <feDropShadow dx="0" dy="1" stdDeviation="2" flood-opacity="0.12"/>
    </filter>
    <marker id="arrowDown" viewBox="0 0 10 10" refX="5" refY="10" markerWidth="6" markerHeight="6" orient="auto">
      <path d="M 0 0 L 10 0 L 5 10 z" fill="#94a3b8"/>
    </marker>
  </defs>

  <rect width="640" height="380" rx="8" fill="#0f172a"/>
  <text x="320" y="28" text-anchor="middle" fill="#e2e8f0" font-size="16" font-weight="600">Automation Stack</text>

  <!-- Triggers -->
  <rect x="40" y="48" width="560" height="70" rx="8" fill="url(#trigGrad)" stroke="#22c55e" stroke-width="1.2" filter="url(#shadow)"/>
  <text x="60" y="68" fill="#86efac" font-size="10" font-weight="600" letter-spacing="0.5">TRIGGERS</text>
  <rect x="60" y="80" width="100" height="28" rx="6" fill="#1e293b" stroke="#22c55e" stroke-width="0.6"/>
  <text x="110" y="98" text-anchor="middle" fill="#bbf7d0" font-size="10">Webhooks</text>
  <rect x="175" y="80" width="100" height="28" rx="6" fill="#1e293b" stroke="#22c55e" stroke-width="0.6"/>
  <text x="225" y="98" text-anchor="middle" fill="#bbf7d0" font-size="10">Scheduled Jobs</text>
  <rect x="290" y="80" width="100" height="28" rx="6" fill="#1e293b" stroke="#22c55e" stroke-width="0.6"/>
  <text x="340" y="98" text-anchor="middle" fill="#bbf7d0" font-size="10">Discord Bot</text>
  <rect x="405" y="80" width="100" height="28" rx="6" fill="#1e293b" stroke="#22c55e" stroke-width="0.6"/>
  <text x="455" y="98" text-anchor="middle" fill="#bbf7d0" font-size="10">Git Push</text>

  <!-- Arrows -->
  <line x1="170" y1="118" x2="170" y2="148" stroke="#94a3b8" stroke-width="1.5" marker-end="url(#arrowDown)"/>
  <line x1="460" y1="118" x2="460" y2="148" stroke="#94a3b8" stroke-width="1.5" marker-end="url(#arrowDown)"/>

  <!-- Orchestration Layer -->
  <rect x="40" y="153" width="560" height="70" rx="8" fill="url(#orchGrad)" stroke="#3b82f6" stroke-width="1.2" filter="url(#shadow)"/>
  <text x="60" y="173" fill="#93c5fd" font-size="10" font-weight="600" letter-spacing="0.5">ORCHESTRATION LAYER</text>
  <rect x="100" y="185" width="180" height="28" rx="6" fill="#1e293b" stroke="#3b82f6" stroke-width="0.8"/>
  <text x="190" y="203" text-anchor="middle" fill="#bfdbfe" font-size="11" font-weight="600">🔄 n8n</text>
  <text x="248" y="203" fill="#64748b" font-size="9">Event-Driven</text>
  <rect x="360" y="185" width="200" height="28" rx="6" fill="#1e293b" stroke="#3b82f6" stroke-width="0.8"/>
  <text x="460" y="203" text-anchor="middle" fill="#bfdbfe" font-size="11" font-weight="600">⚙️ Semaphore</text>
  <text x="524" y="203" fill="#64748b" font-size="9">Ansible CI/CD</text>

  <!-- Arrows -->
  <line x1="190" y1="223" x2="190" y2="253" stroke="#94a3b8" stroke-width="1.5" marker-end="url(#arrowDown)"/>
  <line x1="460" y1="223" x2="460" y2="253" stroke="#94a3b8" stroke-width="1.5" marker-end="url(#arrowDown)"/>

  <!-- Execution Layer -->
  <rect x="40" y="258" width="560" height="70" rx="8" fill="url(#execGrad)" stroke="#f59e0b" stroke-width="1.2" filter="url(#shadow)"/>
  <text x="60" y="278" fill="#fcd34d" font-size="10" font-weight="600" letter-spacing="0.5">EXECUTION LAYER</text>
  <rect x="80" y="290" width="130" height="28" rx="6" fill="#1e293b" stroke="#f59e0b" stroke-width="0.6"/>
  <text x="145" y="308" text-anchor="middle" fill="#fde68a" font-size="10">Ansible Playbooks</text>
  <rect x="225" y="290" width="130" height="28" rx="6" fill="#1e293b" stroke="#f59e0b" stroke-width="0.6"/>
  <text x="290" y="308" text-anchor="middle" fill="#fde68a" font-size="10">Bash/Python Scripts</text>
  <rect x="370" y="290" width="130" height="28" rx="6" fill="#1e293b" stroke="#f59e0b" stroke-width="0.6"/>
  <text x="435" y="308" text-anchor="middle" fill="#fde68a" font-size="10">REST APIs</text>

  <!-- Footer -->
  <text x="320" y="360" text-anchor="middle" fill="#64748b" font-size="9">Webhooks + Cron → n8n · Git Push + Cron → Semaphore · Both layers execute scripts and APIs</text>
</svg>