<svg xmlns="http://www.w3.org/2000/svg" viewBox="0 0 400 140" font-family="'Segoe UI', system-ui, -apple-system, sans-serif">
  <defs>
    <linearGradient id="domGrad" x1="0%" y1="0%" x2="100%" y2="0%">
      <stop offset="0%" style="stop-color:#3b82f6;stop-opacity:0.12"/>
      <stop offset="100%" style="stop-color:#3b82f6;stop-opacity:0.04"/>
    </linearGradient>
    <filter id="shadow" x="-2%" y="-2%" width="104%" height="108%">
      <feDropShadow dx="0" dy="1" stdDeviation="2" flood-opacity="0.12"/>
    </filter>
    <symbol id="icon-globe" viewBox="0 0 24 24" fill="none" stroke="currentColor" stroke-width="2" stroke-linecap="round" stroke-linejoin="round">
      <circle cx="12" cy="12" r="10"/>
      <line x1="2" y1="12" x2="22" y2="12"/>
      <path d="M12 2a15.3 15.3 0 014 10 15.3 15.3 0 01-4 10 15.3 15.3 0 01-4-10 15.3 15.3 0 014-10z"/>
    </symbol>
    <symbol id="icon-lock" viewBox="0 0 24 24" fill="none" stroke="currentColor" stroke-width="2" stroke-linecap="round" stroke-linejoin="round">
      <rect x="3" y="11" width="18" height="11" rx="2"/>
      <path d="M7 11V7a5 5 0 0110 0v4"/>
    </symbol>
  </defs>

  <rect width="400" height="140" rx="8" fill="#0f172a"/>
  <use href="#icon-globe" x="155" y="10" width="16" height="16" color="#93c5fd"/>
  <text x="215" y="24" text-anchor="middle" fill="#e2e8f0" font-size="14" font-weight="600">Configured Domains</text>

  <rect x="30" y="40" width="340" height="85" rx="8" fill="url(#domGrad)" stroke="#3b82f6" stroke-width="1" filter="url(#shadow)"/>
  <use href="#icon-globe" x="50" y="50" width="14" height="14" color="#93c5fd"/>
  <text x="70" y="62" fill="#93c5fd" font-size="10" font-weight="600">DOMAINS</text>
  <use href="#icon-lock" x="340" y="50" width="14" height="14" color="#93c5fd"/>
  <text x="50" y="82" fill="#bfdbfe" font-size="10">service1.loc.domain.com → 192.168.x.x</text>
  <text x="50" y="100" fill="#bfdbfe" font-size="10">service2.loc.domain.com → 192.168.x.x</text>
  <text x="50" y="118" fill="#64748b" font-size="10">...</text>
</svg>
