<svg xmlns="http://www.w3.org/2000/svg" viewBox="0 0 640 320" font-family="'Segoe UI', system-ui, -apple-system, sans-serif">
  <defs>
    <linearGradient id="n8nGrad" x1="0%" y1="0%" x2="100%" y2="0%">
      <stop offset="0%" style="stop-color:#3b82f6;stop-opacity:0.12"/>
      <stop offset="100%" style="stop-color:#3b82f6;stop-opacity:0.04"/>
    </linearGradient>
    <linearGradient id="extGrad" x1="0%" y1="0%" x2="100%" y2="0%">
      <stop offset="0%" style="stop-color:#22c55e;stop-opacity:0.12"/>
      <stop offset="100%" style="stop-color:#22c55e;stop-opacity:0.04"/>
    </linearGradient>
    <filter id="shadow" x="-2%" y="-2%" width="104%" height="108%">
      <feDropShadow dx="0" dy="1" stdDeviation="2" flood-opacity="0.12"/>
    </filter>
    <marker id="arrowRight" viewBox="0 0 10 10" refX="9" refY="5" markerWidth="6" markerHeight="6" orient="auto-start-reverse">
      <path d="M 0 0 L 10 5 L 0 10 z" fill="#94a3b8"/>
    </marker>
    <symbol id="icon-gear" viewBox="0 0 24 24" fill="none" stroke="currentColor" stroke-width="2" stroke-linecap="round" stroke-linejoin="round">
      <circle cx="12" cy="12" r="3"/>
      <path d="M19.4 15a1.65 1.65 0 00.33 1.82l.06.06a2 2 0 010 2.83 2 2 0 01-2.83 0l-.06-.06a1.65 1.65 0 00-1.82-.33 1.65 1.65 0 00-1 1.51V21a2 2 0 01-4 0v-.09A1.65 1.65 0 009 19.4a1.65 1.65 0 00-1.82.33l-.06.06a2 2 0 01-2.83-2.83l.06-.06A1.65 1.65 0 004.68 15a1.65 1.65 0 00-1.51-1H3a2 2 0 010-4h.09A1.65 1.65 0 004.6 9a1.65 1.65 0 00-.33-1.82l-.06-.06a2 2 0 012.83-2.83l.06.06A1.65 1.65 0 009 4.68a1.65 1.65 0 001-1.51V3a2 2 0 014 0v.09a1.65 1.65 0 001 1.51 1.65 1.65 0 001.82-.33l.06-.06a2 2 0 012.83 2.83l-.06.06A1.65 1.65 0 0019.4 9a1.65 1.65 0 001.51 1H21a2 2 0 010 4h-.09a1.65 1.65 0 00-1.51 1z"/>
    </symbol>
    <symbol id="icon-zap" viewBox="0 0 24 24" fill="none" stroke="currentColor" stroke-width="2" stroke-linecap="round" stroke-linejoin="round">
      <polygon points="13 2 3 14 12 14 11 22 21 10 12 10 13 2"/>
    </symbol>
  </defs>

  <rect width="640" height="320" rx="8" fill="#0f172a"/>
  <text x="320" y="28" text-anchor="middle" fill="#e2e8f0" font-size="16" font-weight="600">n8n Architecture</text>

  <!-- n8n Server -->
  <rect x="30" y="48" width="310" height="230" rx="8" fill="url(#n8nGrad)" stroke="#3b82f6" stroke-width="1.2" filter="url(#shadow)"/>
  <use href="#icon-gear" x="155" y="56" width="16" height="16" color="#93c5fd"/>
  <text x="195" y="70" text-anchor="middle" fill="#93c5fd" font-size="12" font-weight="600">n8n Server</text>

  <!-- Workflow Engine sub-box -->
  <rect x="50" y="82" width="270" height="110" rx="6" fill="#1e293b" stroke="#475569" stroke-width="0.6"/>
  <text x="185" y="100" text-anchor="middle" fill="#e2e8f0" font-size="10" font-weight="600">Workflow Engine</text>
  <rect x="65" y="112" width="110" height="28" rx="6" fill="#3b82f6" opacity="0.10" stroke="#3b82f6" stroke-width="0.5"/>
  <use href="#icon-zap" x="67" y="115" width="14" height="14" color="#60a5fa"/>
  <text x="130" y="130" text-anchor="middle" fill="#60a5fa" font-size="9">Webhook Triggers</text>
  <rect x="65" y="148" width="110" height="28" rx="6" fill="#3b82f6" opacity="0.10" stroke="#3b82f6" stroke-width="0.5"/>
  <use href="#icon-zap" x="67" y="151" width="14" height="14" color="#60a5fa"/>
  <text x="130" y="166" text-anchor="middle" fill="#60a5fa" font-size="9">Scheduled Triggers</text>
  <rect x="190" y="130" width="110" height="28" rx="6" fill="#3b82f6" opacity="0.10" stroke="#3b82f6" stroke-width="0.5"/>
  <use href="#icon-zap" x="192" y="133" width="14" height="14" color="#60a5fa"/>
  <text x="255" y="148" text-anchor="middle" fill="#60a5fa" font-size="9">Manual Triggers</text>

  <!-- Credentials Store -->
  <rect x="50" y="204" width="270" height="34" rx="6" fill="#1e293b" stroke="#f59e0b" stroke-width="0.8"/>
  <text x="185" y="225" text-anchor="middle" fill="#fde68a" font-size="10" font-weight="500">Credentials Store (encrypted at rest)</text>

  <!-- External Services -->
  <rect x="380" y="48" width="230" height="230" rx="8" fill="url(#extGrad)" stroke="#22c55e" stroke-width="1.2" filter="url(#shadow)"/>
  <text x="495" y="70" text-anchor="middle" fill="#86efac" font-size="12" font-weight="600">External Services</text>

  <rect x="400" y="86" width="90" height="26" rx="6" fill="#1e293b" stroke="#64748b" stroke-width="0.5"/>
  <text x="445" y="103" text-anchor="middle" fill="#94a3b8" font-size="9">Discord</text>
  <rect x="500" y="86" width="90" height="26" rx="6" fill="#1e293b" stroke="#64748b" stroke-width="0.5"/>
  <text x="545" y="103" text-anchor="middle" fill="#94a3b8" font-size="9">Proxmox API</text>
  <rect x="400" y="120" width="90" height="26" rx="6" fill="#1e293b" stroke="#64748b" stroke-width="0.5"/>
  <text x="445" y="137" text-anchor="middle" fill="#94a3b8" font-size="9">GitHub</text>
  <rect x="500" y="120" width="90" height="26" rx="6" fill="#1e293b" stroke="#64748b" stroke-width="0.5"/>
  <text x="545" y="137" text-anchor="middle" fill="#94a3b8" font-size="9">OpenAI</text>
  <rect x="400" y="154" width="90" height="26" rx="6" fill="#1e293b" stroke="#64748b" stroke-width="0.5"/>
  <text x="445" y="171" text-anchor="middle" fill="#94a3b8" font-size="9">Graylog</text>
  <rect x="500" y="154" width="90" height="26" rx="6" fill="#1e293b" stroke="#64748b" stroke-width="0.5"/>
  <text x="545" y="171" text-anchor="middle" fill="#94a3b8" font-size="9">Custom APIs</text>

  <!-- Arrow n8n → External -->
  <line x1="340" y1="150" x2="376" y2="150" stroke="#94a3b8" stroke-width="1.5" marker-end="url(#arrowRight)"/>

  <!-- Footer -->
  <text x="320" y="305" text-anchor="middle" fill="#64748b" font-size="9">All credentials encrypted at rest · Webhook/Schedule/Manual triggers · Connects to 6+ external service APIs</text>
</svg>
